<mxfile host="app.diagrams.net" agent="Mozilla/5.0 (Windows NT 10.0; Win64; x64) AppleWebKit/537.36 (KHTML, like Gecko) Chrome/140.0.0.0 Safari/537.36" version="28.2.4">
  <diagram name="Página-1" id="4iUnGPk8eX9eYoRPvFoH">
    <mxGraphModel dx="1426" dy="777" grid="1" gridSize="10" guides="1" tooltips="1" connect="1" arrows="1" fold="1" page="1" pageScale="1" pageWidth="827" pageHeight="1169" math="0" shadow="0">
      <root>
        <mxCell id="0" />
        <mxCell id="1" parent="0" />
        <mxCell id="dbXYkPXYevpdWX7WdQCM-38" value="" style="edgeStyle=orthogonalEdgeStyle;rounded=0;orthogonalLoop=1;jettySize=auto;html=1;" edge="1" parent="1" source="iD5cl9piEalMS1e9P42m-1" target="dbXYkPXYevpdWX7WdQCM-37">
          <mxGeometry relative="1" as="geometry" />
        </mxCell>
        <mxCell id="iD5cl9piEalMS1e9P42m-1" value="Inicio" style="ellipse;whiteSpace=wrap;html=1;fillColor=#6a00ff;strokeColor=#3700CC;fontColor=#ffffff;" parent="1" vertex="1">
          <mxGeometry x="354" y="60" width="119" height="90" as="geometry" />
        </mxCell>
        <mxCell id="dbXYkPXYevpdWX7WdQCM-40" value="" style="edgeStyle=orthogonalEdgeStyle;rounded=0;orthogonalLoop=1;jettySize=auto;html=1;" edge="1" parent="1" source="dbXYkPXYevpdWX7WdQCM-37" target="dbXYkPXYevpdWX7WdQCM-39">
          <mxGeometry relative="1" as="geometry" />
        </mxCell>
        <mxCell id="dbXYkPXYevpdWX7WdQCM-37" value="Contador = 0&lt;br&gt;Soma = 0" style="whiteSpace=wrap;html=1;fillColor=#fa6800;strokeColor=#C73500;fontColor=#000000;" vertex="1" parent="1">
          <mxGeometry x="354" y="170" width="120" height="60" as="geometry" />
        </mxCell>
        <mxCell id="dbXYkPXYevpdWX7WdQCM-42" value="" style="edgeStyle=orthogonalEdgeStyle;rounded=0;orthogonalLoop=1;jettySize=auto;html=1;" edge="1" parent="1" source="dbXYkPXYevpdWX7WdQCM-39" target="dbXYkPXYevpdWX7WdQCM-41">
          <mxGeometry relative="1" as="geometry" />
        </mxCell>
        <mxCell id="dbXYkPXYevpdWX7WdQCM-39" value="Pedir N" style="shape=parallelogram;perimeter=parallelogramPerimeter;whiteSpace=wrap;html=1;fixedSize=1;fillColor=#e51400;strokeColor=#B20000;fontColor=#ffffff;" vertex="1" parent="1">
          <mxGeometry x="354" y="250" width="120" height="60" as="geometry" />
        </mxCell>
        <mxCell id="dbXYkPXYevpdWX7WdQCM-45" value="" style="edgeStyle=orthogonalEdgeStyle;rounded=0;orthogonalLoop=1;jettySize=auto;html=1;" edge="1" parent="1" source="dbXYkPXYevpdWX7WdQCM-41" target="dbXYkPXYevpdWX7WdQCM-44">
          <mxGeometry relative="1" as="geometry" />
        </mxCell>
        <mxCell id="dbXYkPXYevpdWX7WdQCM-41" value="Soma = Soma+N&lt;br&gt;Contador = Contador +1" style="whiteSpace=wrap;html=1;fillColor=#fa6800;strokeColor=#C73500;fontColor=#000000;" vertex="1" parent="1">
          <mxGeometry x="336" y="330" width="156" height="60" as="geometry" />
        </mxCell>
        <mxCell id="dbXYkPXYevpdWX7WdQCM-46" style="edgeStyle=orthogonalEdgeStyle;rounded=0;orthogonalLoop=1;jettySize=auto;html=1;exitX=1;exitY=0.5;exitDx=0;exitDy=0;entryX=1;entryY=0.5;entryDx=0;entryDy=0;" edge="1" parent="1" source="dbXYkPXYevpdWX7WdQCM-44" target="dbXYkPXYevpdWX7WdQCM-39">
          <mxGeometry relative="1" as="geometry">
            <Array as="points">
              <mxPoint x="560" y="470" />
              <mxPoint x="560" y="280" />
            </Array>
          </mxGeometry>
        </mxCell>
        <mxCell id="dbXYkPXYevpdWX7WdQCM-47" value="Não" style="edgeLabel;html=1;align=center;verticalAlign=middle;resizable=0;points=[];" vertex="1" connectable="0" parent="dbXYkPXYevpdWX7WdQCM-46">
          <mxGeometry x="-0.7253" y="3" relative="1" as="geometry">
            <mxPoint as="offset" />
          </mxGeometry>
        </mxCell>
        <mxCell id="dbXYkPXYevpdWX7WdQCM-49" value="" style="edgeStyle=orthogonalEdgeStyle;rounded=0;orthogonalLoop=1;jettySize=auto;html=1;" edge="1" parent="1" source="dbXYkPXYevpdWX7WdQCM-44" target="dbXYkPXYevpdWX7WdQCM-48">
          <mxGeometry relative="1" as="geometry" />
        </mxCell>
        <mxCell id="dbXYkPXYevpdWX7WdQCM-50" value="Sim" style="edgeLabel;html=1;align=center;verticalAlign=middle;resizable=0;points=[];" vertex="1" connectable="0" parent="dbXYkPXYevpdWX7WdQCM-49">
          <mxGeometry x="-0.5652" y="-1" relative="1" as="geometry">
            <mxPoint as="offset" />
          </mxGeometry>
        </mxCell>
        <mxCell id="dbXYkPXYevpdWX7WdQCM-44" value="Soma &amp;gt; 1000" style="rhombus;whiteSpace=wrap;html=1;fillColor=#fa6800;strokeColor=#C73500;fontColor=#000000;" vertex="1" parent="1">
          <mxGeometry x="346" y="400" width="136" height="140" as="geometry" />
        </mxCell>
        <mxCell id="dbXYkPXYevpdWX7WdQCM-52" value="" style="edgeStyle=orthogonalEdgeStyle;rounded=0;orthogonalLoop=1;jettySize=auto;html=1;" edge="1" parent="1" source="dbXYkPXYevpdWX7WdQCM-48" target="dbXYkPXYevpdWX7WdQCM-51">
          <mxGeometry relative="1" as="geometry" />
        </mxCell>
        <mxCell id="dbXYkPXYevpdWX7WdQCM-48" value="Escrever &quot;Adicionaste&quot;, Contador, &quot;números e a média deu&quot;, Soma/Contador" style="shape=parallelogram;perimeter=parallelogramPerimeter;whiteSpace=wrap;html=1;fixedSize=1;fillColor=#e51400;strokeColor=#B20000;fontColor=#ffffff;" vertex="1" parent="1">
          <mxGeometry x="229.25" y="585" width="369.5" height="60" as="geometry" />
        </mxCell>
        <mxCell id="dbXYkPXYevpdWX7WdQCM-51" value="Fim" style="ellipse;whiteSpace=wrap;html=1;fillColor=#6a00ff;strokeColor=#3700CC;fontColor=#ffffff;" vertex="1" parent="1">
          <mxGeometry x="354" y="690" width="119" height="90" as="geometry" />
        </mxCell>
      </root>
    </mxGraphModel>
  </diagram>
</mxfile>
